<?xml version="1.0" encoding="UTF-8" standalone="no"?>
<!-- Created with Inkscape (http://www.inkscape.org/) -->

<svg
   version="1.1"
   id="svg2430"
   width="415.87628"
   height="113.92616"
   viewBox="0 0 415.87628 113.92616"
   sodipodi:docname="ADlogo.svg"
   inkscape:version="1.2.2 (b0a84865, 2022-12-01)"
   inkscape:export-filename="../Pictures/nansite/logos/ADlogo.png"
   inkscape:export-xdpi="96"
   inkscape:export-ydpi="96"
   xml:space="preserve"
   xmlns:inkscape="http://www.inkscape.org/namespaces/inkscape"
   xmlns:sodipodi="http://sodipodi.sourceforge.net/DTD/sodipodi-0.dtd"
   xmlns="http://www.w3.org/2000/svg"
   xmlns:svg="http://www.w3.org/2000/svg"><defs
     id="defs2434" /><sodipodi:namedview
     id="namedview2432"
     pagecolor="#505050"
     bordercolor="#eeeeee"
     borderopacity="1"
     inkscape:showpageshadow="0"
     inkscape:pageopacity="0"
     inkscape:pagecheckerboard="0"
     inkscape:deskcolor="#505050"
     showgrid="false"
     inkscape:zoom="2.8284271"
     inkscape:cx="230.69359"
     inkscape:cy="105.71246"
     inkscape:window-width="1920"
     inkscape:window-height="1052"
     inkscape:window-x="0"
     inkscape:window-y="28"
     inkscape:window-maximized="0"
     inkscape:current-layer="g3113" /><g
     inkscape:groupmode="layer"
     inkscape:label="Image"
     id="g2436"
     transform="translate(37.160873,17.712898)"><g
       id="g3113"><g
         id="g3409"
         transform="translate(5,-11.5)"><path
           style="fill:#a8c7b3"
           d="m 349.66057,106.10399 c 0.72187,-0.28887 1.58438,-0.25335 1.91667,0.0789 0.33229,0.33229 -0.25834,0.56864 -1.3125,0.52522 -1.16495,-0.048 -1.4019,-0.28494 -0.60417,-0.60416 z m -70,-1 c 0.72187,-0.28887 1.58438,-0.25335 1.91667,0.0789 0.33229,0.33229 -0.25834,0.56864 -1.3125,0.52522 -1.16495,-0.048 -1.4019,-0.28494 -0.60417,-0.60416 z m 13.94373,0.0188 c 0.69093,-0.27855 1.00506,-0.91287 0.69806,-1.4096 -0.30699,-0.49672 0.17794,-0.62066 1.07762,-0.27542 1.30917,0.50238 1.36946,0.79653 0.30194,1.47323 -0.73362,0.46504 -1.78385,0.81689 -2.33385,0.78189 -0.55,-0.035 -0.4347,-0.29154 0.25623,-0.5701 z m 76.74377,-0.33569 c -0.33992,-0.55 -0.14148,-1 0.44098,-1 0.58246,0 1.05902,0.45 1.05902,1 0,0.55 -0.19844,1 -0.44098,1 -0.24254,0 -0.7191,-0.45 -1.05902,-1 z m -112.10131,-2.25 c -0.39564,-0.6875 -0.3511,-0.9164 0.099,-0.50868 0.45007,0.40773 1.5086,0.18273 2.35228,-0.5 1.08436,-0.87749 1.32559,-0.89393 0.82302,-0.0561 -0.47558,0.79285 0.37128,1.31921 2.55805,1.58996 2.89872,0.35889 2.79429,0.42286 -0.922,0.56477 -2.45664,0.0938 -4.48867,-0.35725 -4.91033,-1.08996 z m 48.10131,-0.75 c -0.33992,-0.55 -0.14148,-1 0.44098,-1 0.58246,0 1.05902,0.45 1.05902,1 0,0.55 -0.19844,1 -0.44098,1 -0.24254,0 -0.7191,-0.45 -1.05902,-1 z m 19.5,0 c -0.825,-0.53316 -1.05,-0.96937 -0.5,-0.96937 0.55,0 1.675,0.43621 2.5,0.96937 0.825,0.53316 1.05,0.96937 0.5,0.96937 -0.55,0 -1.675,-0.43621 -2.5,-0.96937 z m -8.25,-0.70573 c 1.2375,-0.23836 3.2625,-0.23836 4.5,0 1.2375,0.23835 0.225,0.43337 -2.25,0.43337 -2.475,0 -3.4875,-0.19502 -2.25,-0.43337 z m -45,-1.956548 c 0.6875,-0.27741 1.8125,-0.27741 2.5,0 0.6875,0.27741 0.125,0.50439 -1.25,0.50439 -1.375,0 -1.9375,-0.22698 -1.25,-0.50439 z m 14,0 c 0.6875,-0.27741 1.8125,-0.27741 2.5,0 0.6875,0.27741 0.125,0.50439 -1.25,0.50439 -1.375,0 -1.9375,-0.22698 -1.25,-0.50439 z m 6.25,0.26927 c 0,-0.21616 0.69837,-0.661 1.55194,-0.98855 0.88992,-0.34149 1.29132,-0.17385 0.94098,0.39301 -0.58726,0.95021 -2.49292,1.405448 -2.49292,0.59554 z M 190.22214,88.287102 c 0.002,-6.05 0.16696,-8.39607 0.36601,-5.21349 0.19905,3.18258 0.1972,8.13258 -0.004,11 -0.20131,2.86742 -0.36417,0.26349 -0.36191,-5.78651 z m 143.85793,6.5 c 0,-1.925 0.2058,-2.7125 0.45733,-1.75 0.25152,0.9625 0.25152,2.5375 0,3.5 -0.25153,0.9625 -0.45733,0.175 -0.45733,-1.75 z m -63.732,-2 c 0.33992,-0.55 0.81648,-1 1.05902,-1 0.24254,0 0.44098,0.45 0.44098,1 0,0.55 -0.47656,1 -1.05902,1 -0.58246,0 -0.7809,-0.45 -0.44098,-1 z m 24.57895,-0.58333 c 0.048,-1.16495 0.28494,-1.4019 0.60416,-0.60417 0.28887,0.72187 0.25335,1.58437 -0.0789,1.91667 -0.33229,0.33229 -0.56864,-0.25834 -0.52522,-1.3125 z m 60.65438,-0.54076 c 0.67834,-0.68342 1.48524,-0.99067 1.79313,-0.68278 0.30789,0.30789 -0.24711,0.86705 -1.23333,1.24258 -1.4252,0.54268 -1.54006,0.42782 -0.5598,-0.5598 z m -86.57544,-2.87591 c 0,-1.375 0.22698,-1.9375 0.50439,-1.25 0.27741,0.6875 0.27741,1.8125 0,2.5 -0.27741,0.6875 -0.50439,0.125 -0.50439,-1.25 z m -137,-5 c 0,-1.375 0.22698,-1.9375 0.50439,-1.25 0.27741,0.6875 0.27741,1.8125 0,2.5 -0.27741,0.6875 -0.50439,0.125 -0.50439,-1.25 z m 174.34211,0 c -0.33992,-0.55 -0.14148,-1 0.44098,-1 0.58246,0 1.05902,0.45 1.05902,1 0,0.55 -0.19844,1 -0.44098,1 -0.24254,0 -0.7191,-0.45 -1.05902,-1 z m 17.75218,-0.45182 c 0.4137,-0.48723 -0.0363,-1.81464 -1,-2.9498 -1.07818,-1.27 -1.17519,-1.62243 -0.25218,-0.91618 0.825,0.63125 1.875,1.14849 2.33333,1.14943 1.69116,0.003 1.66698,0.92017 -0.0592,2.2429 -0.9758,0.74774 -1.43569,0.96089 -1.02199,0.47365 z m -116.97201,-1.28445 c 2.6291,-0.20668 6.6791,-0.20418 9,0.006 2.32091,0.20972 0.16983,0.37882 -4.78017,0.37577 -4.95,-0.003 -6.84892,-0.17464 -4.21983,-0.38131 z m 123.71983,-0.65674 c 0,-0.21616 0.69837,-0.661 1.55194,-0.98855 0.88992,-0.34149 1.29132,-0.17385 0.94098,0.39301 -0.58726,0.95021 -2.49292,1.40545 -2.49292,0.59554 z m 6,-2.71398 c 0,-0.60884 -0.69837,-0.839 -1.55194,-0.51145 -0.88992,0.34149 -1.29132,0.17385 -0.94098,-0.39301 0.94929,-1.53599 3.49292,-1.16353 3.49292,0.51145 0,0.825 -0.225,1.5 -0.5,1.5 -0.275,0 -0.5,-0.49814 -0.5,-1.10699 z m -56,-0.79457 c 0,-1.03844 1.90221,-2.54172 2.46567,-1.94858 0.18294,0.19258 -0.297,0.93038 -1.06653,1.63957 -0.76953,0.70918 -1.39914,0.84824 -1.39914,0.30901 z m 52.8245,-3.77262 c 0.42673,-2.09296 0.67819,-2.34442 0.96961,-0.9696 0.2164,1.02092 -0.0429,2.29254 -0.57615,2.82582 -0.62614,0.62614 -0.76551,-0.0314 -0.39346,-1.85622 z m -23.74555,0.0909 c 0.048,-1.16495 0.28494,-1.4019 0.60416,-0.60417 0.28887,0.72187 0.25335,1.58437 -0.0789,1.91667 -0.33229,0.33229 -0.56864,-0.25834 -0.52522,-1.3125 z m 27.67728,-0.081 c 0.69093,-0.27855 1.04822,-0.84303 0.79399,-1.25438 -0.25423,-0.41136 0.18582,-0.74793 0.97789,-0.74793 1.08673,0 1.16859,0.3272 0.33357,1.33334 -0.60861,0.73333 -1.61397,1.2978 -2.23412,1.25438 -0.70253,-0.0492 -0.65403,-0.26985 0.12867,-0.58541 z m 8.95402,-1.33572 c 0.28766,-1.1 1.14112,-2 1.89659,-2 1.05182,0 0.97244,0.4685 -0.33887,2 -0.94185,1.1 -1.79531,2 -1.89659,2 -0.10128,0 0.0512,-0.9 0.33887,-2 z m -38.26912,-4.55517 c -1.83031,-1.46637 -1.7984,-1.48719 0.55887,-0.36454 3.06103,1.45781 3.62834,1.91971 2.3578,1.91971 -0.53655,0 -1.84905,-0.69982 -2.91667,-1.55517 z m 40.06595,0.56662 c -0.35034,-0.56686 0.0511,-0.7345 0.94098,-0.39301 1.73242,0.66479 2.04939,1.38156 0.61096,1.38156 -0.51754,0 -1.21592,-0.44485 -1.55194,-0.98855 z m -241.25708,-0.70078 c 0.9625,-0.25152 2.5375,-0.25152 3.5,0 0.9625,0.25153 0.175,0.45733 -1.75,0.45733 -1.925,0 -2.7125,-0.2058 -1.75,-0.45733 z m 59.01903,-0.004 c 0.97297,-0.25354 2.32297,-0.23687 3,0.037 0.67703,0.27393 -0.11903,0.48137 -1.76903,0.46099 -1.65,-0.0204 -2.20394,-0.2445 -1.23097,-0.49804 z M 42.927018,64.203432 c 0.048,-1.16495 0.28494,-1.4019 0.60416,-0.60417 0.28887,0.72187 0.25335,1.58437 -0.0789,1.91667 -0.3323,0.33229 -0.56864,-0.25834 -0.52522,-1.3125 z m 242.921052,-1.35731 c 0,-0.51754 0.44485,-1.21592 0.98855,-1.55194 0.56686,-0.35034 0.7345,0.0511 0.39301,0.94098 -0.66479,1.73242 -1.38156,2.04939 -1.38156,0.61096 z m 20.5,-2.05902 c -0.99549,-1.1 -1.49641,-2 -1.11317,-2 0.38324,0 1.66283,0.9 2.84354,2 1.18072,1.1 1.68164,2 1.11318,2 -0.56847,0 -1.84806,-0.9 -2.84355,-2 z m 43.5,-0.27432 c 0,-1.4342 0.46804,-2.89691 1.04008,-3.25045 0.68219,-0.42162 0.80584,0.3323 0.35933,2.19098 -0.92042,3.83141 -1.39941,4.19405 -1.39941,1.05947 z M 72.098068,59.070852 c 1.5125,-0.22913 3.9875,-0.22913 5.5,0 1.5125,0.22912 0.275,0.41659 -2.75,0.41659 -3.025,0 -4.2625,-0.18747 -2.75,-0.41659 z M 276.30695,49.720571 c -0.36253,-0.586592 -0.44468,-1.281 -0.18255,-1.543128 0.26212,-0.262129 0.74306,0.21781 1.06875,1.066531 0.67618,1.762107 0.0999,2.072058 -0.8862,0.476597 z m -7.45888,-2.311024 c 0,-0.207656 0.7875,-0.995156 1.75,-1.75 1.58606,-1.243871 1.62143,-1.208501 0.37756,0.377555 -1.30637,1.665748 -2.12756,2.195479 -2.12756,1.372445 z m 48.07895,-1.205778 c 0.048,-1.164943 0.28494,-1.4019 0.60416,-0.604167 0.28887,0.721875 0.25335,1.584375 -0.0789,1.916667 -0.33229,0.332291 -0.56864,-0.258334 -0.52522,-1.3125 z M 96.068328,26.103524 l -0.22026,-15.183577 -2.75,-0.416591 -2.75,-0.41659 2.78138,-0.149832 c 1.52977,-0.08241 3.00518,0.433361 3.27871,1.146153 0.27352,0.712792 0.35851,7.800292 0.18887,15.75 l -0.30844,14.454015 z m 49.149702,4.683578 c 0,-5.775 0.16528,-8.1375 0.36728,-5.25 0.202,2.8875 0.202,7.6125 0,10.5 -0.202,2.8875 -0.36728,0.525 -0.36728,-5.25 z m -69.369962,8.622445 c 0,-0.207656 0.7875,-0.995156 1.75,-1.75 1.58606,-1.243871 1.62143,-1.208501 0.37756,0.377555 -1.30637,1.665748 -2.12756,2.195479 -2.12756,1.372445 z M 189.59807,36.620435 c -0.9625,-1.008333 -1.3551,-1.833333 -0.87244,-1.833333 1.00856,0 3.60567,2.892189 3.01494,3.357499 -0.21587,0.170042 -1.18,-0.515832 -2.1425,-1.524166 z m 127.75,-11.833333 c 0,-2.644959 0.3375,-4.600431 0.75,-4.345492 0.4125,0.25494 0.75,2.210411 0.75,4.345492 0,2.135081 -0.3375,4.090552 -0.75,4.345492 -0.4125,0.254939 -0.75,-1.700533 -0.75,-4.345492 z m -235.268002,1 c 0,-1.925 0.2058,-2.7125 0.45733,-1.75 0.25152,0.9625 0.25152,2.5375 0,3.5 -0.25153,0.9625 -0.45733,0.175 -0.45733,-1.75 z m 230.976262,0.323807 c -0.99192,-0.398002 -1.02153,-0.843878 -0.12755,-1.921053 0.91375,-1.101002 0.83094,-1.402754 -0.38494,-1.402754 -0.85202,0 -1.73795,0.5625 -1.96874,1.25 -0.24125,0.71867 -0.37286,0.612404 -0.30963,-0.25 0.18278,-2.492671 3.89393,-1.810907 4.0826,0.75 0.0912,1.2375 0.12847,2.214474 0.0829,2.171053 -0.0456,-0.04342 -0.66416,-0.312182 -1.37462,-0.597246 z M -31.651932,25.155531 c 7.173588,-0.74485 15.503499,-0.808488 15.501822,-0.118429 -10e-4,0.4125 -4.164322,0.677983 -9.251822,0.589963 -5.0875,-0.08802 -7.9,-0.300211 -6.25,-0.471534 z M 115.12824,24.05083 c 2.6291,-0.206676 6.6791,-0.204183 9,0.0055 2.32091,0.209724 0.16983,0.378823 -4.78017,0.375776 -4.95,-0.003 -6.84892,-0.17464 -4.21983,-0.381317 z m 90.53233,-0.946842 c 0.72187,-0.288871 1.58438,-0.253344 1.91667,0.07895 0.33229,0.332292 -0.25834,0.568641 -1.3125,0.52522 -1.16495,-0.04798 -1.4019,-0.284941 -0.60417,-0.604167 z m -2.54347,-3.009877 c 0.97297,-0.253543 2.32297,-0.236869 3,0.03705 0.67703,0.273923 -0.11903,0.481368 -1.76903,0.460988 -1.65,-0.02038 -2.20394,-0.244498 -1.23097,-0.498042 z m 110.80992,-1.890342 c 0.048,-1.164943 0.28494,-1.4019 0.60416,-0.604167 0.28887,0.721875 0.25335,1.584375 -0.0789,1.916667 -0.33229,0.332291 -0.56864,-0.258334 -0.52522,-1.3125 z M 107.84807,14.409547 c 0,-0.207656 0.7875,-0.995156 1.75,-1.75 1.58606,-1.243871 1.62143,-1.208501 0.37756,0.377555 -1.30637,1.665748 -2.12756,2.195479 -2.12756,1.372445 z m 87,0 c 0,-0.207656 0.7875,-0.995156 1.75,-1.75 1.58606,-1.243871 1.62143,-1.208501 0.37756,0.377555 -1.30637,1.665748 -2.12756,2.195479 -2.12756,1.372445 z m -50,-1.889356 c 0,-0.978063 -1.06921,-1.762216 -2.75,-2.016835 l -2.75,-0.41659 2.78138,-0.149832 c 2.65216,-0.14287 4.77926,2.122859 3.34216,3.559963 -0.34295,0.342946 -0.62354,-0.09657 -0.62354,-0.976706 z m 60.75,-0.39537 c 0.6875,-0.277412 1.8125,-0.277412 2.5,0 0.6875,0.277413 0.125,0.504386 -1.25,0.504386 -1.375,0 -1.9375,-0.226973 -1.25,-0.504386 z M 4.1171,10.094111 c 0.972967,-0.253543 2.322967,-0.236869 3,0.03705 0.677032,0.273927 -0.119032,0.481372 -1.769032,0.460992 -1.65,-0.02038 -2.203936,-0.244498 -1.230968,-0.498042 z m 168,0 c 0.97297,-0.253543 2.32297,-0.236869 3,0.03705 0.67703,0.273923 -0.11903,0.481368 -1.76903,0.460988 -1.65,-0.02038 -2.20394,-0.244498 -1.23097,-0.498042 z m 11.49263,-0.01427 c 1.24391,-0.239193 3.04391,-0.230112 4,0.02018 0.95609,0.250292 -0.0617,0.445996 -2.26166,0.434897 -2.2,-0.0111 -2.98225,-0.215885 -1.73834,-0.455077 z M 295.2892,1.231936 c -1.84479,-1.477981 -1.8234,-1.497806 0.43104,-0.399434 1.30469,0.635653 3.68956,0.892254 5.29971,0.570224 1.80402,-0.360805 2.69393,-0.207512 2.31881,0.399434 -0.93755,1.516995 -5.88147,1.166772 -8.04956,-0.570224 z m 27.55887,0.567082 c -1.0892,-0.732756 -0.61061,-0.838473 1.74752,-0.386015 2.10096,0.403115 3.83539,0.137829 4.91262,-0.751397 1.42866,-1.17933 1.59558,-1.16151 1.17547,0.125496 -0.58189,1.782636 -5.70628,2.444417 -7.83561,1.011916 z M 311.06039,0.56561 c 1.66353,-0.56429 3.35797,-0.558739 4.38203,0.01435 1.23298,0.690009 0.52355,0.930656 -2.71233,0.920057 -3.97382,-0.01302 -4.12936,-0.10006 -1.6697,-0.934411 z m 37.53952,-3.028508 c -0.42686,-1.084069 -0.22535,-1.755827 0.52954,-1.765313 0.77072,-0.00968 0.6673,-0.371606 -0.28138,-0.984687 -0.825,-0.533156 -1.05,-0.969374 -0.5,-0.969374 0.55,0 1.675,0.436218 2.5,0.969374 0.8759,0.566051 1.01043,0.975746 0.32332,0.984687 -0.64717,0.0084 -1.33546,0.802813 -1.52954,1.765313 -0.33607,1.666667 -0.38568,1.666667 -1.04194,0 z m -92.75184,-2.781385 c 0,-0.532738 0.675,-0.968615 1.5,-0.968615 0.825,0 1.5,0.176855 1.5,0.393011 0,0.216156 -0.675,0.652033 -1.5,0.968615 -0.825,0.316583 -1.5,0.139728 -1.5,-0.393011 z m 36,0.031385 c -1.2819,-0.828426 -1.24555,-0.971601 0.25,-0.984687 0.9625,-0.00842 1.75,0.434687 1.75,0.984687 0,1.21961 -0.11279,1.21961 -2,0 z m 40,0 c 0,-0.55 0.47656,-1 1.05902,-1 0.58246,0 0.7809,0.45 0.44098,1 -0.33992,0.55 -0.81648,1 -1.05902,1 -0.24254,0 -0.44098,-0.45 -0.44098,-1 z m 36,0 c -1.2819,-0.828426 -1.24555,-0.971601 0.25,-0.984687 0.9625,-0.00842 1.75,0.434687 1.75,0.984687 0,1.21961 -0.11279,1.21961 -2,0 z"
           id="path3423" /><path
           style="fill:#8eb69d"
           d="m 34.660568,96.103992 c 0.72187,-0.28887 1.58437,-0.25335 1.91667,0.0789 0.33229,0.33229 -0.25834,0.56864 -1.3125,0.52522 -1.16495,-0.048 -1.4019,-0.28494 -0.60417,-0.60416 z m -16.733553,-8.90022 c 0.04798,-1.16495 0.284941,-1.4019 0.604167,-0.60417 0.288871,0.72187 0.253344,1.58437 -0.07895,1.91667 -0.332292,0.33229 -0.568641,-0.25834 -0.52522,-1.3125 z m 108.000005,-4 c 0.048,-1.16495 0.28494,-1.4019 0.60416,-0.60417 0.28887,0.72187 0.25335,1.58437 -0.0789,1.91667 -0.3323,0.33229 -0.56864,-0.25834 -0.52522,-1.3125 z M 2.250556,25.787102 c 0,-8.525 0.153369,-12.0125 0.34082,-7.75 0.187451,4.2625 0.187451,11.2375 0,15.5 -0.187451,4.2625 -0.34082,0.775 -0.34082,-7.75 z m 23.962743,5.5 c 0.0026,-5.5 0.170532,-7.622415 0.373173,-4.716478 0.202642,2.905937 0.200512,7.405937 -0.0047,10 -0.205279,2.594063 -0.371077,0.216478 -0.368473,-5.283522 z m 27.059529,-11.5 c 0,-11.825 0.14466,-16.6625 0.32145,-10.75 0.1768,5.9125 0.1768,15.5875 0,21.5 -0.17679,5.9125 -0.32145,1.075 -0.32145,-10.75 z m 111.953412,10 c 0,-6.325 0.16237,-8.9125 0.36082,-5.75 0.19845,3.1625 0.19845,8.3375 0,11.5 -0.19845,3.1625 -0.36082,0.575 -0.36082,-5.75 z m 63.04659,-10 c 0,-11.825 0.14466,-16.6625 0.32145,-10.75 0.1768,5.9125 0.1768,15.5875 0,21.5 -0.17679,5.9125 -0.32145,1.075 -0.32145,-10.75 z m -52.05953,2.5 c 0.003,-5.5 0.17053,-7.622415 0.37317,-4.716478 0.20265,2.905937 0.20052,7.405937 -0.005,10 -0.20498,2.594063 -0.37077,0.216478 -0.36817,-5.283522 z M -30.401932,28.04986 c 2.8875,-0.202002 7.6125,-0.202002 10.5,0 2.8875,0.202003 0.525,0.367277 -5.25,0.367277 -5.775,0 -8.1375,-0.165274 -5.25,-0.367277 z m 106.40789,-2.262758 c 0,-1.375 0.22698,-1.9375 0.50439,-1.25 0.27741,0.6875 0.27741,1.8125 0,2.5 -0.27741,0.6875 -0.50439,0.125 -0.50439,-1.25 z m 119.714552,-9.75 c -1.24387,-1.586056 -1.2085,-1.621426 0.37756,-0.377555 1.66575,1.306369 2.19548,2.127555 1.37244,2.127555 -0.20765,0 -0.99515,-0.7875 -1.75,-1.75 z m -19.60008,-10.25 c 0,-2.475 0.19502,-3.4875 0.43337,-2.25 0.23836,1.2375 0.23836,3.2625 0,4.5 -0.23835,1.2375 -0.43337,0.225 -0.43337,-2.25 z"
           id="path3421" /><path
           style="fill:#75a88b"
           d="m 277.34807,104.7871 c 0.33992,-0.55 0.81648,-1 1.05902,-1 0.24254,0 0.44098,0.45 0.44098,1 0,0.55 -0.47656,1 -1.05902,1 -0.58246,0 -0.7809,-0.45 -0.44098,-1 z m 85,-1 c -0.35052,-0.56716 0.48962,-1 1.94098,-1 1.40746,0 2.55902,0.45 2.55902,1 0,0.55 -0.87344,1 -1.94098,1 -1.06754,0 -2.2191,-0.45 -2.55902,-1 z m -49,-2 c -0.33992,-0.55 0.0835,-1 0.94098,-1 0.85746,0 1.55902,0.45 1.55902,1 0,0.55 -0.42344,1 -0.94098,1 -0.51754,0 -1.2191,-0.45 -1.55902,-1 z m 11.3125,0.31689 c 0.72187,-0.28887 1.58438,-0.25335 1.91667,0.0789 0.33229,0.33229 -0.25834,0.56864 -1.3125,0.52522 -1.16495,-0.048 -1.4019,-0.28494 -0.60417,-0.60416 z M 32.660568,99.103992 c 0.72187,-0.28887 1.58437,-0.25335 1.91667,0.0789 0.33229,0.33229 -0.25834,0.56864 -1.3125,0.52522 -1.16495,-0.048 -1.4019,-0.28494 -0.60417,-0.60416 z m 243.187502,-0.20031 c 0,-0.48589 1.125,-1.09848 2.5,-1.36133 1.375,-0.26285 2.5,-0.1233 2.5,0.3101 0,0.4334 0.7875,0.9938 1.75,1.24532 0.9625,0.25153 -0.1625,0.50953 -2.5,0.57333 -2.3375,0.0638 -4.25,-0.28154 -4.25,-0.76742 z m -211.530562,-21.36594 0.03056,-21.25064 7,-0.0656 7,-0.0656 -6.73024,0.35901 -6.73024,0.35901 -0.30032,20.95723 -0.30032,20.95723 0.0306,-21.25064 z m 46.900522,11.24936 c 0,-5.775 0.16528,-8.1375 0.36728,-5.25 0.202,2.8875 0.202,7.6125 0,10.5 -0.202,2.8875 -0.36728,0.525 -0.36728,-5.25 z m 157.78793,4 c 0,-1.375 0.22698,-1.9375 0.50439,-1.25 0.27741,0.6875 0.27741,1.8125 0,2.5 -0.27741,0.6875 -0.50439,0.125 -0.50439,-1.25 z m 1.92106,-3.58333 c 0.048,-1.16495 0.28494,-1.4019 0.60416,-0.60417 0.28887,0.72187 0.25335,1.58437 -0.0789,1.91667 -0.33229,0.33229 -0.56864,-0.25834 -0.52522,-1.3125 z M 20.848068,80.409542 c 0,-0.20765 0.7875,-0.99515 1.75,-1.75 1.586056,-1.24387 1.621426,-1.2085 0.377555,0.37756 -1.306369,1.66575 -2.127555,2.19548 -2.127555,1.37244 z m 324.872442,-4.37244 c -1.24387,-1.58606 -1.2085,-1.62143 0.37756,-0.37756 1.66575,1.30637 2.19548,2.12756 1.37244,2.12756 -0.20765,0 -0.99515,-0.7875 -1.75,-1.75 z m -293.122442,0.08772 c 0.6875,-0.27741 1.8125,-0.27741 2.5,0 0.6875,0.27741 0.125,0.50439 -1.25,0.50439 -1.375,0 -1.9375,-0.22698 -1.25,-0.50439 z m 58.407892,-5.33772 c 0,-1.375 0.22698,-1.9375 0.50439,-1.25 0.27741,0.6875 0.27741,1.8125 0,2.5 -0.27741,0.6875 -0.50439,0.125 -0.50439,-1.25 z m -76.157892,0.62244 c 0,-0.20765 0.7875,-0.99515 1.75,-1.75 1.58606,-1.24387 1.62143,-1.2085 0.37756,0.37756 -1.30637,1.66575 -2.12756,2.19548 -2.12756,1.37244 z m 298.881162,-2.40386 c -0.32944,-1.98722 -0.18269,-2.92011 0.37209,-2.36533 0.50384,0.50384 0.74864,1.98048 0.544,3.28141 -0.31488,2.00169 -0.45573,1.86084 -0.91609,-0.91608 z M 28.927018,63.203772 c 0.048,-1.16495 0.28494,-1.4019 0.60416,-0.60417 0.28887,0.72187 0.25335,1.58437 -0.0789,1.91667 -0.3323,0.33229 -0.56864,-0.25834 -0.52522,-1.3125 z m 334.921052,-8.41667 c -0.5887,-1.1 -0.84537,-2 -0.57037,-2 0.275,0 0.98167,0.9 1.57037,2 0.5887,1.1 0.84537,2 0.57037,2 -0.275,0 -0.98167,-0.9 -1.57037,-2 z M 339.35515,42.798556 c -0.35034,-0.56686 0.0511,-0.734507 0.94098,-0.393011 1.73242,0.664791 2.04939,1.381557 0.61096,1.381557 -0.51754,0 -1.21592,-0.444846 -1.55194,-0.988546 z M 192.92702,31.203769 c 0.048,-1.164943 0.28494,-1.4019 0.60416,-0.604167 0.28887,0.721875 0.25335,1.584375 -0.0789,1.916667 -0.33229,0.332291 -0.56864,-0.258334 -0.52522,-1.3125 z m 117.67105,-2.1224 c 1.2375,-0.238353 3.2625,-0.238353 4.5,0 1.2375,0.238353 0.225,0.433369 -2.25,0.433369 -2.475,0 -3.4875,-0.195016 -2.25,-0.433369 z m -0.25,-2.294267 c -0.33992,-0.55 -0.14148,-1 0.44098,-1 0.58246,0 1.05902,0.45 1.05902,1 0,0.55 -0.19844,1 -0.44098,1 -0.24254,0 -0.7191,-0.45 -1.05902,-1 z M 132.92702,25.203769 c 0.048,-1.164943 0.28494,-1.4019 0.60416,-0.604167 0.28887,0.721875 0.25335,1.584375 -0.0789,1.916667 -0.3323,0.332291 -0.56864,-0.258334 -0.52522,-1.3125 z m 178.42105,-1.416667 c 0.33992,-0.55 0.81648,-1 1.05902,-1 0.24254,0 0.44098,0.45 0.44098,1 0,0.55 -0.47656,1 -1.05902,1 -0.58246,0 -0.7809,-0.45 -0.44098,-1 z m -2.31148,-3.618901 c 0.92868,-0.277236 1.91534,-1.263898 2.19258,-2.192583 0.36556,-1.224549 0.44799,-1.142116 0.3,0.3 -0.11961,1.165545 -1.02704,2.072972 -2.19258,2.192583 -1.44212,0.147993 -1.52455,0.06556 -0.3,-0.3 z m 5.62398,-0.06421 c 0.72187,-0.288871 1.58438,-0.253344 1.91667,0.07895 0.33229,0.332292 -0.25834,0.568641 -1.3125,0.52522 -1.16495,-0.04798 -1.4019,-0.284941 -0.60417,-0.604167 z m -16.0625,-18.97917 c 0.6875,-0.277412 1.8125,-0.277412 2.5,0 0.6875,0.277413 0.125,0.504386 -1.25,0.504386 -1.375,0 -1.9375,-0.226973 -1.25,-0.504386 z m 26.25,0.278858 c 0,-0.210882 1.11138,-0.595877 2.46974,-0.855543 1.35835,-0.259666 2.2318,-0.08713 1.94098,0.383423 -0.51208,0.828563 -4.41072,1.24587 -4.41072,0.47212 z m -15.1875,-1.299691 c 0.72187,-0.288871 1.58438,-0.253344 1.91667,0.07895 0.33229,0.332292 -0.25834,0.568641 -1.3125,0.52522 -1.16495,-0.04798 -1.4019,-0.284941 -0.60417,-0.604167 z m -8,-1 c 0.72187,-0.288871 1.58438,-0.253344 1.91667,0.07895 0.33229,0.332292 -0.25834,0.568641 -1.3125,0.52522 -1.16495,-0.04798 -1.4019,-0.284941 -0.60417,-0.604167 z M 54.598068,-1.875179 c 0.6875,-0.277412 1.8125,-0.277412 2.5,0 0.6875,0.277413 0.125,0.504386 -1.25,0.504386 -1.375,0 -1.9375,-0.226973 -1.25,-0.504386 z m 175.000002,0 c 0.6875,-0.277412 1.8125,-0.277412 2.5,0 0.6875,0.277413 0.125,0.504386 -1.25,0.504386 -1.375,0 -1.9375,-0.226973 -1.25,-0.504386 z m 29.16245,-3.651855 c 0.4487,-0.447776 2.78946,-0.664554 5.20169,-0.481731 l 4.38586,0.332407 -5.20169,0.48173 c -2.86092,0.264951 -4.83456,0.115369 -4.38586,-0.332406 z m 27.58755,0.314136 -5,-0.685793 4.5,-0.141791 c 2.475,-0.07798 5.175,0.294428 6,0.827584 0.825,0.533156 1.05,0.905569 0.5,0.827584 -0.55,-0.07799 -3.25,-0.450398 -6,-0.827584 z m 47.07718,-0.124885 c 0.29747,-0.481313 2.8768,-0.839589 5.73184,-0.796168 5.9249,0.09011 5.34459,0.547087 -1.54085,1.213387 -2.60251,0.251843 -4.48845,0.0641 -4.19099,-0.417219 z m 28.42282,0.124885 -5.5,-0.674007 5.19098,-0.162996 c 2.85504,-0.089649 5.4691,0.287003 5.80902,0.837003 0.33992,0.55 0.47898,0.926652 0.30902,0.837003 -0.16996,-0.089648 -2.78402,-0.466299 -5.80902,-0.837003 z"
           id="path3419" /><path
           style="fill:#4b8d65"
           d="m 349.66057,107.10399 c 0.72187,-0.28887 1.58438,-0.25335 1.91667,0.0789 0.33229,0.33229 -0.25834,0.56864 -1.3125,0.52522 -1.16495,-0.048 -1.4019,-0.28494 -0.60417,-0.60416 z m -70,-3 c 0.72187,-0.28887 1.58438,-0.25335 1.91667,0.0789 0.33229,0.33229 -0.25834,0.56864 -1.3125,0.52522 -1.16495,-0.048 -1.4019,-0.28494 -0.60417,-0.60416 z m -17.05627,-1.98125 c 0.69093,-0.27855 1.00187,-0.91803 0.69098,-1.42105 -0.90716,-1.467828 0.19298,-1.053068 1.55279,0.58541 1.0486,1.26349 0.87082,1.48755 -1.12756,1.42105 -1.30484,-0.0434 -1.80714,-0.30685 -1.11621,-0.58541 z m 54.99377,-0.0414 c 1.2375,-0.23836 3.2625,-0.23836 4.5,0 1.2375,0.23835 0.225,0.43337 -2.25,0.43337 -2.475,0 -3.4875,-0.19502 -2.25,-0.43337 z m -24.25,-1.29424 c -0.33992,-0.55 -0.14148,-0.999998 0.44098,-0.999998 0.58246,0 1.05902,0.449998 1.05902,0.999998 0,0.55 -0.19844,1 -0.44098,1 -0.24254,0 -0.7191,-0.45 -1.05902,-1 z m -152.75,-1.662278 c 0.6875,-0.27741 1.8125,-0.27741 2.5,0 0.6875,0.27741 0.125,0.50439 -1.25,0.50439 -1.375,0 -1.9375,-0.22698 -1.25,-0.50439 z m 70.51903,-0.0307 c 0.97297,-0.25354 2.32297,-0.23687 3,0.0371 0.67703,0.27393 -0.11903,0.48137 -1.76903,0.46099 -1.65,-0.0204 -2.20394,-0.2445 -1.23097,-0.49804 z M 106.25056,83.787102 c 0,-8.525 0.15337,-12.0125 0.34082,-7.75 0.18745,4.2625 0.18745,11.2375 0,15.5 -0.18745,4.2625 -0.34082,0.775 -0.34082,-7.75 z m 167.41001,14.31689 c 0.72187,-0.28887 1.58438,-0.25335 1.91667,0.0789 0.33229,0.33229 -0.25834,0.56864 -1.3125,0.52522 -1.16495,-0.048 -1.4019,-0.28494 -0.60417,-0.60416 z m 13,0 c 0.72187,-0.28887 1.58438,-0.25335 1.91667,0.0789 0.33229,0.33229 -0.25834,0.56864 -1.3125,0.52522 -1.16495,-0.048 -1.4019,-0.28494 -0.60417,-0.60416 z m 42.47351,-4.81689 c 0.008,-2.75 0.20172,-3.75631 0.43157,-2.23625 0.22986,1.52006 0.22371,3.77006 -0.0136,5 -0.23736,1.22994 -0.42542,-0.0137 -0.41792,-2.76375 z m -257.022262,2.78242 c 1.52006,-0.22986 3.77006,-0.22371 5,0.0136 1.22994,0.23736 -0.0137,0.42542 -2.76375,0.41792 -2.75,-0.008 -3.75631,-0.20172 -2.23625,-0.43157 z M 366.84807,83.409542 c 0,-0.20765 0.7875,-0.99515 1.75,-1.75 1.58606,-1.24387 1.62143,-1.2085 0.37756,0.37756 -1.30637,1.66575 -2.12756,2.19548 -2.12756,1.37244 z m -34.71399,-11.12244 c 0.008,-2.75 0.20172,-3.75631 0.43157,-2.23625 0.22986,1.52006 0.22371,3.77006 -0.0136,5 -0.23736,1.22994 -0.42542,-0.0138 -0.41792,-2.76375 z m -21.28601,3.12244 c 0,-0.20765 0.7875,-0.99515 1.75,-1.75 1.58606,-1.24387 1.62143,-1.2085 0.37756,0.37756 -1.30637,1.66575 -2.12756,2.19548 -2.12756,1.37244 z m -199.56269,-2.39309 c 0.34132,-0.34131 1.32379,-0.72378 2.18327,-0.84993 0.85947,-0.12614 1.28342,0.0499 0.94211,0.39123 -0.34132,0.34131 -1.32379,0.72378 -2.18327,0.84993 -0.85947,0.12614 -1.28342,-0.0499 -0.94211,-0.39123 z M 67.660568,41.103988 c 0.72187,-0.288871 1.58437,-0.253344 1.91667,0.07895 0.33229,0.332292 -0.25834,0.568641 -1.3125,0.52522 -1.16495,-0.04798 -1.4019,-0.284941 -0.60417,-0.604167 z m 51.456532,-0.0099 c 0.97297,-0.253543 2.32297,-0.236869 3,0.03705 0.67703,0.273923 -0.11903,0.481368 -1.76903,0.460988 -1.65,-0.02038 -2.20394,-0.244498 -1.23097,-0.498042 z M 7.203023,32.287102 c -0.003,-4.95 0.166052,-7.101078 0.375776,-4.780173 0.209724,2.320905 0.212217,6.370905 0.0055,9 -0.206636,2.629095 -0.378228,0.730173 -0.381276,-4.219827 z m 14.01501,-1.5 c 0,-5.775 0.165274,-8.1375 0.367277,-5.25 0.202002,2.8875 0.202002,7.6125 0,10.5 -0.202003,2.8875 -0.367277,0.525 -0.367277,-5.25 z m 36.787925,8 c 0,-1.375 0.22698,-1.9375 0.50439,-1.25 0.27741,0.6875 0.27741,1.8125 0,2.5 -0.27741,0.6875 -0.50439,0.125 -0.50439,-1.25 z m 102.220282,-9 c 0,-6.325 0.16237,-8.9125 0.36082,-5.75 0.19845,3.1625 0.19845,8.3375 0,11.5 -0.19845,3.1625 -0.36082,0.575 -0.36082,-5.75 z m 73.04659,-10 c 0,-11.825 0.14466,-16.6625 0.32145,-10.75 0.1768,5.9125 0.1768,15.5875 0,21.5 -0.17679,5.9125 -0.32145,1.075 -0.32145,-10.75 z M 120.66057,39.103988 c 0.72187,-0.288871 1.58437,-0.253344 1.91667,0.07895 0.33229,0.332292 -0.25834,0.568641 -1.3125,0.52522 -1.16495,-0.04798 -1.4019,-0.284941 -0.60417,-0.604167 z m 75.05994,-1.066886 c -1.24387,-1.586056 -1.2085,-1.621426 0.37756,-0.377555 0.9625,0.754844 1.75,1.542344 1.75,1.75 0,0.823034 -0.82119,0.293303 -2.12756,-1.372445 z m -14.50721,-14.75 c 0.003,-5.5 0.17053,-7.622415 0.37317,-4.716478 0.20265,2.905937 0.20052,7.405937 -0.005,10 -0.20498,2.594063 -0.37077,0.216478 -0.36817,-5.283522 z m 16.71372,7.916667 c 0.048,-1.164943 0.28494,-1.4019 0.60416,-0.604167 0.28887,0.721875 0.25335,1.584375 -0.0789,1.916667 -0.33229,0.332291 -0.56864,-0.258334 -0.52522,-1.3125 z M 58.043018,26.287102 c 0.0204,-1.65 0.2445,-2.203936 0.49804,-1.230968 0.25354,0.972967 0.23687,2.322967 -0.0371,3 -0.27388,0.677032 -0.48132,-0.119032 -0.46094,-1.769032 z m 249.077412,-1.5 c 0,-2.475 0.19502,-3.4875 0.43337,-2.25 0.23836,1.2375 0.23836,3.2625 0,4.5 -0.23835,1.2375 -0.43337,0.225 -0.43337,-2.25 z m -300.114467,-12 c 0,-1.375 0.226973,-1.9375 0.504386,-1.25 0.277412,0.6875 0.277412,1.8125 0,2.5 -0.277413,0.6875 -0.504386,0.125 -0.504386,-1.25 z m 51.191515,-6 c 0,-4.675 0.17226,-6.5875 0.3828,-4.25 0.21053,2.3375 0.21053,6.1625 0,8.5 -0.21054,2.3375 -0.3828,0.425 -0.3828,-4.25 z M 181.00811,6.106653 c -0.13312,-3.477331 -0.53847,-4.253338 -2.41004,-4.613818 l -2.25,-0.433369 2.28138,-0.136182 c 2.7066,-0.161564 3.50696,1.471828 2.94912,6.018622 -0.37637,3.067645 -0.4237,2.998345 -0.57046,-0.835253 z m 97.08996,-1.035805 c 1.5125,-0.229125 3.9875,-0.229125 5.5,0 1.5125,0.229124 0.275,0.41659 -2.75,0.41659 -3.025,0 -4.2625,-0.187466 -2.75,-0.41659 z m 64.01375,-0.0013 c 1.52006,-0.229855 3.77006,-0.223712 5,0.01365 1.22994,0.237362 -0.0138,0.425424 -2.76375,0.417917 -2.75,-0.0075 -3.75631,-0.201713 -2.23625,-0.431567 z M 275.59807,0.063706 c 1.7875,-0.221826 4.7125,-0.221826 6.5,0 1.7875,0.221827 0.325,0.403322 -3.25,0.403322 -3.575,0 -5.0375,-0.181495 -3.25,-0.403322 z m 42.0625,0.04028 c 0.72187,-0.288871 1.58438,-0.253344 1.91667,0.07895 0.33229,0.332292 -0.25834,0.568641 -1.3125,0.52522 -1.16495,-0.04798 -1.4019,-0.284941 -0.60417,-0.604167 z m 26.9375,-0.04028 c 1.7875,-0.221826 4.7125,-0.221826 6.5,0 1.7875,0.221827 0.325,0.403322 -3.25,0.403322 -3.575,0 -5.0375,-0.181495 -3.25,-0.403322 z m 6.32895,-2.859937 c 0.048,-1.164943 0.28494,-1.4019 0.60416,-0.604167 0.28887,0.721875 0.25335,1.584375 -0.0789,1.916667 -0.33229,0.332291 -0.56864,-0.258334 -0.52522,-1.3125 z m -82.26645,-3.099781 c 0.72187,-0.288871 1.58438,-0.253344 1.91667,0.07895 0.33229,0.332292 -0.25834,0.568641 -1.3125,0.52522 -1.16495,-0.04798 -1.4019,-0.284941 -0.60417,-0.604167 z m 11,0 c 0.72187,-0.288871 1.58438,-0.253344 1.91667,0.07895 0.33229,0.332292 -0.25834,0.568641 -1.3125,0.52522 -1.16495,-0.04798 -1.4019,-0.284941 -0.60417,-0.604167 z m 65,0 c 0.72187,-0.288871 1.58438,-0.253344 1.91667,0.07895 0.33229,0.332292 -0.25834,0.568641 -1.3125,0.52522 -1.16495,-0.04798 -1.4019,-0.284941 -0.60417,-0.604167 z"
           id="path3417" /><path
           style="fill:#60711e"
           d="m 24.16189,96.836872 c -8.142124,-4.9646 -6.84194,-15.08044 2.659688,-20.69319 l 2.80919,-1.65943 -2.378898,-4.4741 c -2.800655,-5.26731 -2.419394,-8.61444 1.376048,-12.08049 2.11632,-1.93264 3.3129,-2.259329 6.6406,-1.81299 8.05794,1.0808 10.11766,8.33232 4.08127,14.36871 -1.93663,1.93663 -3.19704,4.01241 -2.82346,4.65 0.71317,1.21718 9.11582,12.54356 10.39845,14.01662 0.97675,1.12176 3.55679,-3.89436 4.44885,-8.64946 0.51211,-2.72977 1.19808,-3.71544 2.58573,-3.71544 1.03879,0 1.87883,0.5625 1.86675,1.25 -0.0329,1.87226 -3.86462,9.9672 -5.65376,11.94417 -1.43434,1.58493 -1.33273,2.0061 1.21061,5.01798 l 2.77636,3.28785 -2.75803,0.3263 c -1.90221,0.22506 -3.2048,-0.31155 -4.19784,-1.72931 l -1.43981,-2.05562 -3.69298,1.97931 c -4.94346,2.64954 -13.58812,2.66358 -17.908768,0.0291 z m 16.218298,-1.49874 c 1.90733,-0.79694 3.46788,-1.72351 3.46788,-2.05904 0,-1.39228 -12.18754,-16.49019 -13.29494,-16.46975 -1.74439,0.0322 -5.28118,3.10755 -6.654593,5.78641 -2.328206,4.5412 0.929937,10.66735 6.950043,13.0679 3.52308,1.40484 5.55647,1.33539 9.53161,-0.32552 z m -2.52116,-26.80103 c 2.46115,-4.03658 2.49466,-5.90401 0.15776,-8.78997 -2.30093,-2.84152 -6.70992,-2.0611 -8.32002,1.4727 -0.88381,1.93974 -0.65949,3.13161 1.21814,6.47242 2.77879,4.94417 4.32967,5.13286 6.94412,0.84485 z"
           id="path3415" /><path
           style="fill:#277648"
           d="m 185.2133,89.287102 c 0.003,-5.5 0.17053,-7.62242 0.37317,-4.71648 0.20265,2.90594 0.20052,7.40594 -0.005,10 -0.20525,2.59406 -0.37104,0.21648 -0.36844,-5.28352 z m 88.24786,2.31702 c 0.28881,-0.4673 0.94401,-0.59075 1.45601,-0.27431 1.30838,0.80862 1.16106,1.12396 -0.52511,1.12396 -0.80081,0 -1.21971,-0.38234 -0.9309,-0.84965 z m -71.53414,-5.40035 c 0.048,-1.16495 0.28494,-1.4019 0.60416,-0.60417 0.28887,0.72187 0.25335,1.58437 -0.0789,1.91667 -0.33229,0.33229 -0.56864,-0.25834 -0.52522,-1.3125 z m -49.84695,-2.41667 c 0,-1.925 0.2058,-2.7125 0.45733,-1.75 0.25152,0.9625 0.25152,2.5375 0,3.5 -0.25153,0.9625 -0.45733,0.175 -0.45733,-1.75 z m 49.84695,-2.58333 c 0.048,-1.16495 0.28494,-1.4019 0.60416,-0.60417 0.28887,0.72187 0.25335,1.58437 -0.0789,1.91667 -0.33229,0.33229 -0.56864,-0.25834 -0.52522,-1.3125 z m 18.79349,-9.16667 c -1.24387,-1.58606 -1.2085,-1.62143 0.37756,-0.37756 1.66575,1.30637 2.19548,2.12756 1.37244,2.12756 -0.20765,0 -0.99515,-0.7875 -1.75,-1.75 z m -80.46995,-46.25 c 0,-8.525 0.15337,-12.0125 0.34082,-7.75 0.18745,4.2625 0.18745,11.2375 0,15.5 -0.18745,4.2625 -0.34082,0.775 -0.34082,-7.75 z m -27.53005,10.25 c -1.24387,-1.586056 -1.2085,-1.621426 0.37756,-0.377555 1.66575,1.306369 2.19548,2.127555 1.37244,2.127555 -0.20765,0 -0.99515,-0.7875 -1.75,-1.75 z m -54.872442,0.29484 c 0,-0.771606 2.97626,-1.392265 3.3987,-0.708752 0.25451,0.411807 -0.40608,0.814187 -1.46798,0.894177 -1.0619,0.07999 -1.93072,-0.0035 -1.93072,-0.185425 z m 255.000002,-9.54484 c -0.90129,-0.58246 -1.02463,-0.975486 -0.30902,-0.984687 0.65504,-0.0084 1.4691,0.434687 1.80902,0.984687 0.7673,1.241525 0.42112,1.241525 -1.5,0 z M 127.92702,23.203769 c 0.048,-1.164943 0.28494,-1.4019 0.60416,-0.604167 0.28887,0.721875 0.25335,1.584375 -0.0789,1.916667 -0.3323,0.332291 -0.56864,-0.258334 -0.52522,-1.3125 z m -121.000005,-1 c 0.04798,-1.164943 0.284941,-1.4019 0.604167,-0.604167 0.288871,0.721875 0.253344,1.584375 -0.07895,1.916667 -0.332292,0.332291 -0.568641,-0.258334 -0.52522,-1.3125 z M 218.00596,21.787102 c 0,-1.375 0.22698,-1.9375 0.50439,-1.25 0.27741,0.6875 0.27741,1.8125 0,2.5 -0.27741,0.6875 -0.50439,0.125 -0.50439,-1.25 z m -159.157892,-6 c -0.90129,-0.58246 -1.02463,-0.975486 -0.30902,-0.984687 0.65504,-0.0084 1.4691,0.434687 1.80902,0.984687 0.7673,1.241525 0.42112,1.241525 -1.5,0 z m -52,-0.383369 c 0,-0.210852 0.900621,-0.618886 2.00138,-0.906741 1.100759,-0.287855 1.749201,-0.115339 1.440983,0.383369 -0.538251,0.870908 -3.442363,1.312446 -3.442363,0.523372 z M 275.35761,-4.228328 c 0.61536,-0.995681 0.34343,-1.143443 -1.0955,-0.595263 -1.53541,0.58494 -1.66677,0.480086 -0.66404,-0.530061 0.90012,-0.906782 1.55429,-0.954957 2.33713,-0.172114 0.78285,0.782843 0.7396,1.301922 -0.15451,1.854509 -0.85723,0.529801 -0.98822,0.357335 -0.42308,-0.557071 z"
           id="path3413" /><path
           style="fill:#015f29"
           d="m 253.34807,105.73238 c 4.50312,-2.13091 10.66154,-2.4346 18.61351,-0.9179 7.82135,1.49179 22.20029,1.26236 31.22446,-0.49822 11.009,-2.14782 25.54648,-1.98353 34.18213,0.38628 3.83894,1.05349 8.1049,2.11721 9.4799,2.36382 1.375,0.24661 -20,0.47323 -47.5,0.50361 -49.77853,0.055 -49.98228,0.0469 -46,-1.83759 z m 102,0.85792 c 7.71402,-1.8645 13.00418,-2.01406 16.55305,-0.468 3.30976,1.44188 2.96933,1.50032 -8.55305,1.46823 -9.86455,-0.0275 -11.28818,-0.20548 -8,-1.00023 z m -14.25,-2.65671 c -5.34498,-1.64989 -6.43822,-2.7533 -3.75,-3.78486 0.825,-0.316588 1.5,-1.104308 1.5,-1.750508 0,-0.6462 1.125,-1.26801 2.5,-1.38181 1.375,-0.1138 2.5,0.23805 2.5,0.78189 0,0.54384 0.675,0.9888 1.5,0.9888 0.825,0 1.5,-0.8449 1.5,-1.87756 0,-2.84437 2.4612,-4.48117 4.83107,-3.21285 1.48295,0.79365 2.25716,0.68902 3.18637,-0.4306 1.86668,-2.24922 3.03515,-1.83411 7.09624,2.52101 2.05146,2.2 4.14538,4 4.65314,4 0.50776,0 1.70322,0.861908 2.65658,1.915358 1.68424,1.86106 1.62388,1.90067 -2.12945,1.39724 -2.18637,-0.29325 -6.20514,0.17748 -9.25989,1.08464 -6.50704,1.93239 -9.87459,1.88208 -16.78406,-0.25075 z m -66.95209,-0.52601 c -4.51115,-0.65523 -8.48404,-1.47328 -8.82865,-1.81789 -0.98438,-0.98438 11.21237,-1.971168 20.03074,-1.620608 7.22733,0.287298 8,0.511188 8,2.318018 0,1.73868 -0.71864,2.02037 -5.5,2.15591 -3.025,0.0857 -9.19094,-0.3802 -13.70209,-1.03543 z m 21.93506,-6.569118 c -0.10548,-5.68855 0.13373,-6.84787 1.31909,-6.39301 1.97402,0.7575 2.09555,13.341648 0.12885,13.341648 -0.9532,0 -1.35483,-1.92741 -1.44794,-6.948638 z m 5.57953,5.265528 c 0.72187,-0.28887 1.58438,-0.25335 1.91667,0.0789 0.33229,0.33229 -0.25834,0.56864 -1.3125,0.52522 -1.16495,-0.048 -1.4019,-0.28494 -0.60417,-0.60416 z m 3.6875,-1.74843 c -4.11253,-0.884858 -5.0594,-1.494988 -5.33466,-3.437468 -0.54652,-3.85664 1.21674,-4.43535 4.41062,-1.44758 1.64136,1.53543 3.8391,2.62152 5.01004,2.47589 1.1473,-0.1427 2.61928,0.38312 3.27107,1.16848 1.72264,2.075648 -1.19202,2.567168 -7.35707,1.240678 z m 24.41667,1.01468 c -0.3865,-0.38668 -0.36203,-13.892348 0.0355,-19.583138 l 0.17462,-2.5 0.99584,2.49721 0.99584,2.49722 1.94877,-2.49722 1.94878,-2.49721 -1.3808,3.40011 c -0.90895,2.23823 -1.20705,5.56458 -0.87236,9.73411 0.34438,4.29024 0.10249,6.82312 -0.74965,7.849888 -1.25586,1.51321 -2.30894,1.88698 -3.09652,1.09903 z M 263.298,98.713582 c 1.67143,-1.352 3.94678,-2.25554 5.25,-2.08476 1.26504,0.16578 2.30007,-0.20735 2.30007,-0.82917 0,-0.62182 0.39884,-0.88409 0.88631,-0.58281 0.48747,0.30127 1.12083,-0.34903 1.40746,-1.44511 0.55594,-2.12594 3.82953,-1.7816 3.42461,0.36023 -0.12011,0.63533 0.34412,1.04264 1.03162,0.90514 0.6875,-0.1375 1.1375,0.30581 1,0.98513 -0.14084,0.69584 -3.30637,1.74346 -7.25,2.39935 -3.85,0.64031 -7.9,1.50485 -9,1.921188 -1.31243,0.49674 -0.98585,-0.0634 0.94993,-1.629188 z m 53.84655,0.64749 c 0.98806,-0.74933 2.67556,-1.13254 3.75,-0.85157 3.29965,0.86288 2.16653,2.279408 -1.79648,2.245798 -3.37998,-0.0287 -3.57274,-0.16624 -1.95352,-1.394228 z M 64.848068,77.787102 v -21 h 8.63398 c 11.18604,0 15.8797,1.47481 21.01604,6.60354 7.128522,7.11796 8.020052,17.41659 2.23817,25.85469 -4.62229,6.74578 -11.6841,9.47364 -24.63819,9.51732 l -7.25,0.02445 z m 17.27733,17.93987 c 11.44107,-3.17721 16.6521,-17.5591 10.29356,-28.40912 -3.29091,-5.61552 -9.06161,-8.53075 -16.88661,-8.53075 h -5.68428 v 19 19 l 4.25,-0.006 c 2.3375,-0.003 5.9498,-0.47761 8.02733,-1.05455 z m 24.722672,-11.93987 c 0,-14.03251 0.12168,-15 1.8865,-15 2.42189,0 2.70359,2.19327 2.27975,17.75 -0.30756,11.28876 -0.48411,12.25 -2.25,12.25 -1.80317,0 -1.91625,-0.88519 -1.91625,-15 z m 26.89788,12.73007 c -12.28487,-8.20683 -6.67215,-28.11469 7.92652,-28.11469 9.25164,0 15.40637,6.14014 15.40637,15.36984 0,9.10473 -5.89919,15.01478 -14.98718,15.01478 -3.47934,0 -5.95629,-0.6737 -8.34571,-2.26993 z m 11.98328,0.16151 c 4.99951,-1.74284 7.71753,-8.7164 6.51718,-16.72095 -1.24118,-8.27674 -7.74774,-12.24671 -14.8031,-9.03207 -7.77938,3.54452 -7.29082,22.63562 0.66108,25.83262 3.03348,1.21958 3.9247,1.21028 7.62484,-0.0796 z m 19.11884,-12.89158 v -15 h 2.5 c 1.89327,0 2.5,0.523 2.5,2.15499 0,1.98988 0.13421,2.03352 1.75183,0.5696 3.23375,-2.9265 7.11696,-3.83701 11.42127,-2.67798 5.59146,1.50562 6.8269,4.92975 6.8269,18.92127 0,10.09446 -0.15832,11.03212 -1.86273,11.03212 -1.68615,0 -1.90964,-1.13886 -2.35752,-12.01382 -0.57477,-13.95574 -1.57335,-15.98618 -7.86216,-15.98618 -2.88435,0 -4.26034,0.62028 -5.84501,2.63486 -1.82064,2.31457 -2.07258,4.01639 -2.07258,14 v 11.36514 h -2.5 -2.5 z m 39.84143,13.5321 c -9.02499,-5.09257 -9.59671,-21.70116 -0.92339,-26.82461 5.47261,-3.23275 12.13347,-2.60364 16.69518,1.57686 2.86836,2.62866 3.68995,4.22578 4.11536,8 l 0.53152,4.71565 h -11.7095 -11.70951 l 0.70661,3.21718 c 0.38864,1.76944 1.19065,3.99224 1.78225,4.93955 2.90221,4.64717 11.61211,5.74089 16.5638,2.07994 1.64991,-1.21983 3.24492,-1.82132 3.54446,-1.33665 0.29954,0.48466 -0.68902,1.69789 -2.1968,2.69606 -3.65512,2.41972 -13.80313,2.96563 -17.39998,0.93602 z m 16.15857,-16.56422 c 0,-3.28147 -2.66722,-8.71942 -4.8496,-9.88739 -2.24436,-1.20114 -6.13172,-1.40862 -8.6056,-0.45931 -1.91251,0.7339 -4.02651,4.59061 -5.00382,9.12882 l -0.69989,3.25 h 9.57945 c 8.96326,0 9.57946,-0.13072 9.57946,-2.03212 z m 64,16.65456 c 0,-0.20765 0.62245,-0.89414 1.38322,-1.52552 1.06665,-0.88524 1.51719,-0.79883 1.96861,0.37756 0.40254,1.04899 -0.0295,1.52552 -1.38321,1.52552 -1.08274,0 -1.96862,-0.1699 -1.96862,-0.37756 z m -14.84211,-6.62244 c 0,-1.375 0.22698,-1.9375 0.50439,-1.25 0.27741,0.6875 0.27741,1.8125 0,2.5 -0.27741,0.6875 -0.50439,0.125 -0.50439,-1.25 z m 37.84211,-6.82479 c 0,-0.57132 -1.2375,-0.9026 -2.75,-0.73616 -1.5125,0.16644 -3.0532,-0.17283 -3.42378,-0.75392 -0.4679,-0.73368 -1.0893,-0.71169 -2.03354,0.072 -0.74787,0.62067 -1.91149,0.7875 -2.58584,0.37073 -1.46635,-0.90625 -8.51091,-0.67597 -10.14104,0.3315 -0.63437,0.39207 -1.75166,0.21635 -2.48286,-0.39049 -0.73119,-0.60684 -2.06148,-0.82244 -2.95619,-0.4791 -1.01506,0.38951 -1.61479,0.11399 -1.59495,-0.73275 0.0431,-1.83808 2.42268,-4.85699 3.82844,-4.85699 0.62687,0 1.13976,-0.45 1.13976,-1 0,-0.55 0.675,-1 1.5,-1 2.17709,0 1.84137,-2.09797 -0.4308,-2.69216 -2.68225,-0.70142 -1.57321,-2.84079 2.46637,-4.75769 3.70599,-1.75861 3.8096,-4.55015 0.16888,-4.55015 h -2.08157 l 2.14675,-2 c 1.18071,-1.1 2.66434,-2 3.29696,-2 0.73293,0 0.91853,-0.92314 0.51159,-2.54453 -0.785,-3.127712 2.10498,-8.4555 4.58654,-8.4555 2.40454,0 7.14816,6.438848 6.42416,8.71997 -0.38399,1.20984 0.25533,2.43931 1.91753,3.68757 3.01094,2.26112 3.19386,3.59246 0.49359,3.59246 -1.11111,0 -2,0.66667 -2,1.5 0,0.825 0.675,1.5 1.5,1.5 0.825,0 1.5,0.45 1.5,1 0,0.55 0.62686,1 1.39301,1 0.76616,0 1.66616,0.7118 2,1.58179 0.82941,2.16141 0.76311,2.63273 -0.2797,1.98824 -0.48768,-0.30141 -1.40397,0.0753 -2.0362,0.83705 -0.91666,1.10452 -0.43067,1.82932 2.39935,3.57837 4.84638,2.99523 6.21113,5.63079 3.24886,6.27409 -1.22393,0.2658 -3.01282,0.81428 -3.97532,1.21885 -1.01563,0.42691 -1.75,0.29968 -1.75,-0.30318 z m -5,-29.17521 c 0,-0.55 -0.47656,-1 -1.05902,-1 -0.58246,0 -0.7809,0.45 -0.44098,1 0.33992,0.55 0.81648,1 1.05902,1 0.24254,0 0.44098,-0.45 0.44098,-1 z m 47,27.95289 c 0,-1.07409 -0.3375,-1.95325 -0.75,-1.95369 -0.4125,-4.5e-4 -0.87816,-1.99015 -1.03479,-4.42157 -0.23873,-3.70576 0.0443,-4.52522 1.75,-5.06659 2.48836,-0.78977 2.70766,-3.50515 0.28479,-3.52635 -0.98823,-0.009 -1.3147,-0.33512 -0.75,-0.75 1.06483,-0.78232 1.4382,-1.99563 2.01387,-6.54425 0.51551,-4.07337 5.94507,-11.69044 8.3331,-11.69044 1.65145,0 5.37063,7.74748 4.09703,8.53461 -0.70052,0.43295 -0.64037,1.12631 0.18387,2.11947 0.67375,0.81181 1.29994,2.45925 1.39154,3.66097 0.0916,1.20172 0.51544,3.4402 0.94187,4.97439 0.56083,2.0177 0.43135,2.70935 -0.46797,2.5 -0.68382,-0.15919 -1.44956,0.27306 -1.70164,0.96056 -0.25209,0.6875 0.0292,1.25 0.625,1.25 0.59583,0 1.8746,0.79127 2.8417,1.75837 3.59181,3.59181 -0.71018,11.03521 -4.58459,7.93235 -0.90796,-0.72716 -1.5387,-0.73638 -2,-0.0293 -0.37058,0.56808 -3.03628,1.30544 -5.92378,1.63859 -4.74789,0.54778 -5.25,0.41894 -5.25,-1.34717 z m -86.73877,-3.06196 c -0.27197,-1.04001 -0.91857,-1.89093 -1.43688,-1.89093 -0.51831,0 -0.68761,-0.41224 -0.37621,-0.91608 0.31139,-0.50385 0.12987,-2.06363 -0.40338,-3.46618 -0.98277,-2.58489 0.24279,-4.88026 3.11729,-5.83842 0.78655,-0.26219 0.90984,-1.06532 0.3591,-2.33929 -0.46127,-1.06702 -0.77404,-2.25707 -0.69506,-2.64457 0.079,-0.3875 0.34565,-2.33356 0.5926,-4.32456 0.59082,-4.763514 5.79975,-12.4709 8.42828,-12.4709 1.76753,0 5.36737,7.749495 3.9941,8.598224 -0.82232,0.50822 -0.74271,1.015665 0.28308,1.804416 0.78492,0.60355 1.43771,2.22236 1.45065,3.59736 0.0129,1.375 0.36922,3.5125 0.79174,4.75 0.5815,1.70308 0.38724,2.25 -0.79915,2.25 -2.20478,0 -1.92739,1.12575 0.94989,3.85496 2.44625,2.32037 3.32431,5.14504 1.59935,5.14504 -0.48585,0 -1.13329,0.9557 -1.43875,2.12378 -0.44112,1.68686 -1.06527,1.99581 -3.03387,1.50172 -1.36317,-0.34213 -2.62823,-0.23749 -2.81125,0.23254 -0.18302,0.47003 -2.52522,1.09517 -5.2049,1.38921 -4.19206,0.45999 -4.94117,0.27066 -5.36663,-1.35632 z m 53.96128,0.55237 c -1.22238,-0.85619 -2.22251,-2.20619 -2.22251,-3 0,-0.79382 -0.64844,-1.4433 -1.44098,-1.4433 -0.79254,0 -1.72599,-0.46115 -2.07433,-1.02478 -0.34834,-0.56362 -0.0641,-0.90112 0.63159,-0.75 2.33452,0.50712 1.99854,-2.90485 -0.52456,-5.32714 -1.7827,-1.71145 -2.33346,-3.05694 -1.92357,-4.69919 0.38364,-1.53714 -0.008,-2.72695 -1.17982,-3.58376 -1.61865,-1.18359 -1.47355,-1.56325 1.87877,-4.915561 1.99809,-1.998096 3.6329,-4.067578 3.6329,-4.598848 0,-0.53127 0.9,-1.251595 2,-1.600721 1.1,-0.349126 2,-1.407428 2,-2.35178 0,-1.724059 5.255,-5.559889 6.2516,-4.563288 0.29273,0.292726 2.15587,-0.146169 4.14031,-0.975324 1.98445,-0.829155 3.60809,-1.250417 3.60809,-0.936137 0,0.31428 0.675,0.01122 1.5,-0.673471 0.825,-0.684689 1.5,-0.812186 1.5,-0.283326 0,0.52886 1.75953,1.817412 3.91007,2.86345 2.15054,1.046037 3.71819,2.212339 3.48369,2.591783 -0.23451,0.379443 0.0322,0.9733 0.59263,1.319683 0.65199,0.402953 0.683,1.257643 0.0861,2.37298 -1.09873,2.052994 0.20704,4.698743 1.82537,3.698561 1.92224,-1.18801 5.89248,2.693686 5.07077,4.957669 -0.3951,1.08856 -0.51093,2.33641 -0.2574,2.773 0.25353,0.4366 -0.057,1.4179 -0.69004,2.18068 -0.63305,0.76278 -1.19004,2.88057 -1.23775,4.7062 -0.0477,1.82562 -0.7037,4.26841 -1.45777,5.42842 -0.75407,1.16 -1.10559,2.80081 -0.78117,3.64624 0.35916,0.93595 -0.29458,2.15663 -1.67148,3.12105 -2.09487,1.46731 -2.39428,1.44122 -4.06718,-0.35443 -2.29701,-2.46555 -2.26896,-2.90008 0.36848,-5.70751 1.8463,-1.9653 1.92173,-2.31445 0.5,-2.31445 -0.92087,0 -2.57431,0.9 -3.67431,2 l -2,2 v -4.5 c 0,-2.475 -0.44143,-4.5 -0.98095,-4.5 -1.55883,0 -2.31356,4.66065 -1.66847,10.30323 0.58115,5.08328 0.56261,5.13125 -0.84893,2.19677 -0.79368,-1.65 -2.10828,-4.6875 -2.92132,-6.75 -0.81305,-2.0625 -1.95124,-3.75 -2.5293,-3.75 -1.43354,0 -1.32092,1.4183 0.44897,5.65424 1.50895,3.61142 1.98449,7.34576 0.93544,7.34576 -0.31051,0 -1.70153,-1.35121 -3.09115,-3.00268 -2.6046,-3.09539 -5.04309,-3.22609 -3.48212,-0.18663 0.90218,1.75668 0.48235,4.18931 -0.723,4.18931 -0.38179,0 -1.69429,-0.70052 -2.91666,-1.5567 z m -204.23489,-8.42016 c 1.51361,-2.82822 5.5717,-4.32935 8.07785,-2.9881 3.5315,1.89 2.03774,4.42474 -1.62428,2.75621 -1.85748,-0.84632 -2.91526,-0.71065 -4.97341,0.6379 -2.57159,1.68498 -2.59569,1.67837 -1.48016,-0.40601 z M -39.213195,31.615129 c 11.447732,-27.332343 13.768307,-32.339898 15.102833,-32.590312 0.973645,-0.182698 2.85125,2.807029 5.648598,8.99431 2.304592,5.097386 6.675112,14.555475 9.712266,21.017975 l 5.522099,11.75 h -2.524982 c -2.138722,0 -2.975836,-0.994339 -5.472222,-6.5 l -2.947241,-6.5 h -10.813534 -10.813535 l -2.546001,6.206497 c -1.4003,3.413574 -3.047566,6.373686 -3.660591,6.578027 -0.613025,0.204342 0.643515,-3.826082 2.79231,-8.956497 z m 19.473512,-15.578027 c -2.487236,-5.3625 -4.87024,-10.100243 -5.295566,-10.528319 -0.664615,-0.668911 -9.12297,17.445935 -9.118348,19.528319 9.16e-4,0.4125 4.261926,0.75 9.468912,0.75 h 9.467248 z m 22.587751,9.75 c 0,-14.333333 0.08889,-15 2,-15 1.466667,0 2,0.666667 2,2.5 0,1.375 0.418587,2.5 0.930194,2.5 0.573593,0 0.573593,1.243398 0,3.243398 -0.511607,1.783869 -0.930194,7.408869 -0.930194,12.5 0,8.589935 -0.144041,9.256602 -2,9.256602 -1.911111,0 -2,-0.666667 -2,-15 z m 18.852827,2.652823 c -0.244381,-8.552095 -0.774667,-12.855195 -1.725272,-14 -1.577343,-1.89958 -6.25171,-2.166439 -9.443296,-0.539115 l -2.184259,1.113709 2.164141,-2.250072 c 3.302932,-3.43408 9.932875,-3.147161 13.128658,0.568159 2.217555,2.578061 2.50882,2.666917 3.417797,1.042666 1.428194,-2.55204 7.134624,-4.669125 10.676104,-3.96083 5.75853,1.151705 6.57587,3.202958 6.96372,17.476586 l 0.35043,12.896074 h -2.60043 -2.60042 V 28.721361 c 0,-6.636158 -0.46583,-12.936158 -1.03518,-14 -1.477,-2.759786 -8.00047,-2.656257 -10.55983,0.167586 -1.601052,1.766499 -1.958239,4.000176 -2.238739,14 -0.300161,10.700741 -0.516249,11.898155 -2.147173,11.898155 -1.634268,0 -1.848281,-1.219827 -2.166251,-12.347177 z m 32.147173,-8.652823 c 0,-20.333333 0.0635,-21 2,-21 1.84314,0 2,0.666667 2,8.5 0,4.675 0.24658,8.5 0.54797,8.5 0.30138,0 1.58016,-1.2 2.84173,-2.666667 1.87926,-2.184764 3.1425,-2.666666 6.99032,-2.666666 10.90971,0 16.82908,11.668315 11.6766,23.017016 -3.33614,7.348076 -13.49255,9.971293 -18.64753,4.816317 -1.375,-1.375 -2.70454,-2.5 -2.95454,-2.5 -0.25,0 -0.45455,1.125 -0.45455,2.5 0,1.833333 -0.53333,2.5 -2,2.5 -1.93651,0 -2,-0.666667 -2,-21 z m 17.40476,17.861443 c 5.04508,-2.298695 7.1757,-12.143116 4.1799,-19.31307 -3.41121,-8.164182 -14.15295,-7.36466 -16.54022,1.23111 -3.52618,12.696576 3.05372,22.32233 12.36032,18.08196 z m 19.59524,-11.861443 v -15 h 2.5 2.5 v 15 15 h -2.5 -2.5 z m 21.191862,12.975602 c -3.67995,-2.243605 -7.14794,-8.781609 -7.14794,-13.475602 0,-4.89664 3.41546,-11.169076 7.12683,-13.088298 9.30138,-4.80993 19.17028,0.256446 20.55097,10.550199 l 0.54162,4.038099 h -11.63167 c -12.90504,0 -12.91051,0.0035 -10.16766,6.568108 2.67372,6.399106 11.06982,8.036211 17.54994,3.421957 1.5651,-1.11445 3.08393,-1.640704 3.37518,-1.169455 0.29125,0.471249 -1.20093,1.829396 -3.31595,3.018103 -5.01952,2.821128 -12.38075,2.880819 -16.88132,0.136889 z m 16.26716,-17.225602 c -1.57158,-7.297718 -3.91528,-9.75 -9.3183,-9.75 -3.90344,0 -6.91343,2.520437 -8.09628,6.779483 -1.76112,6.341206 -1.92672,6.220517 8.53502,6.220517 h 9.57945 z m 12.54098,4.25 c 0,-14.333333 0.0889,-15 2,-15 1.35668,0 2,0.666667 2,2.07258 v 2.07258 l 2.54696,-2.003439 c 3.69556,-2.906926 7.67571,-3.493348 11.85581,-1.746793 4.82447,2.01579 5.59723,4.5244 5.59723,18.170172 0,10.768233 -0.1166,11.4349 -2,11.4349 -1.87951,0 -2,-0.666667 -2,-11.065741 0,-14.180075 -1.24793,-16.888522 -7.79545,-16.918946 -2.18,-0.01013 -4.12629,0.815515 -5.75,2.439232 -2.3226,2.322596 -2.45455,3.075197 -2.45455,14 0,10.878788 -0.11549,11.545455 -2,11.545455 -1.91111,0 -2,-0.666667 -2,-15 z m 41.357,14.008419 c -4.38193,-1.768325 -5.357,-4.722657 -5.357,-16.230925 V 12.787102 h -2.5 c -1.375,0 -2.5,-0.45 -2.5,-1 0,-0.55 1.125,-1 2.5,-1 2.2963,0 2.5,-0.366667 2.5,-4.5 0,-3.833333 0.2963,-4.5 2,-4.5 1.7037,0 2,0.666667 2,4.5 v 4.5 h 4 c 2.2,0 4,0.45 4,1 0,0.55 -1.8,1 -4,1 h -4 v 10.4349 c 0,5.739196 0.43886,11.589196 0.97525,13 1.09182,2.871699 4.08154,3.40652 6.01561,1.07611 1.21674,-1.466082 3.00914,-1.197931 3.00914,0.450182 0,0.63132 -5.82212,3.338408 -6.39922,2.975422 -0.0554,-0.03486 -1.06513,-0.45255 -2.24378,-0.928195 z m 14.56608,-1.931496 c -3.99078,-3.990775 -3.99264,-8.848323 -0.005,-13.311146 2.55487,-2.8594 3.53729,-3.265777 7.89501,-3.265777 3.49098,0 5.60556,0.568801 7.08203,1.904988 l 2.10488,1.904987 v -4.432481 c 0,-6.155755 -2.1217,-8.877494 -6.92034,-8.877494 -2.79138,0 -4.5187,0.711772 -6.47511,2.668182 -2.11239,2.11239 -2.92194,2.410822 -3.88637,1.432679 -2.94246,-2.984295 7.84223,-6.834863 14.28449,-5.100141 6.0008,1.615845 6.99137,3.919253 7.69385,17.890678 l 0.60881,12.108602 h -2.65266 c -1.71111,0 -2.65267,-0.54154 -2.65267,-1.52568 0,-1.367574 -0.30574,-1.367574 -2.95034,0 -4.9588,2.564292 -10.73641,1.992772 -14.12658,-1.397397 z m 13.0054,0.460062 c 3.19601,-1.652722 4.07152,-3.330903 4.07152,-7.804321 0,-8.08323 -10.83864,-10.812945 -14.53699,-3.661143 -2.16989,4.196117 -1.79753,6.747805 1.46007,10.005402 3.29555,3.295555 4.94028,3.562218 9.0054,1.460062 z m 19.07152,-18.536985 c 0,-20.333333 0.0635,-21 2,-21 1.93651,0 2,0.666667 2,21 0,20.333333 -0.0635,21 -2,21 -1.93651,0 -2,-0.666667 -2,-21 z m 56.33379,11.25 c 0.24851,-0.4125 2.04437,-5.848289 3.9908,-12.079532 l 3.53897,-11.329532 -3.59709,-1.502956 c -2.03963,-0.852215 -6.01511,-1.415542 -9.18177,-1.301063 -8.53987,0.308728 -9.0847,0.178708 -9.0847,-2.167998 0,-2.08687 0.22302,-2.116277 10.75,-1.417473 13.61801,0.903994 48.29597,0.897151 63,-0.01243 11.02762,-0.682162 11.25,-0.653844 11.25,1.432533 0,1.382953 -0.63046,2.128451 -1.8,2.128451 -0.99,0 -2.34,0.54 -3,1.2 -0.93333,0.933333 -1.2,0.933333 -1.2,0 0,-1.693473 -8.25768,-1.537001 -12.50327,0.23692 l -3.43904,1.436921 1.33222,4.313079 c 0.73272,2.372194 2.34583,7.599488 3.58469,11.616208 2.84106,9.211462 2.05454,10.490201 -1.04756,1.70314 -2.04863,-5.803018 -2.8831,-6.922991 -7.08416,-9.507929 -4.55885,-2.805088 -4.91166,-2.867549 -8.27032,-1.464211 -1.92958,0.80623 -4.64778,1.465872 -6.04044,1.465872 -2.03426,0 -2.53212,0.491544 -2.53212,2.5 0,1.833333 0.53333,2.5 2,2.5 1.66667,0 2,0.666667 2,4 v 4 h -5 -5 v -4 c 0,-3.333333 0.33333,-4 2,-4 3.05788,0 2.81298,-4.972511 -0.25,-5.076078 -1.2375,-0.04184 -3.82392,-0.644127 -5.74759,-1.33841 -3.23459,-1.167409 -3.84995,-1.045528 -8.18338,1.620855 -4.14744,2.551947 -4.93257,3.624805 -6.83393,9.33841 -1.18149,3.550373 -2.58803,6.455223 -3.12565,6.455223 -0.53762,0 -0.77416,-0.3375 -0.52566,-0.75 z m 30.16337,-5.241051 c 0.81594,-2.570793 -0.11232,-4.008949 -2.58756,-4.008949 -2.18993,0 -3.4326,2.194701 -2.54797,4.5 0.83648,2.179835 4.39584,1.839494 5.13553,-0.491051 z M 297.84807,11.640707 c 0,-0.504006 -0.72042,-1.192824 -1.60092,-1.530707 -1.76163,-0.676 -3.35993,1.189826 -3.38377,3.950155 -0.0143,1.661514 0.14196,1.670006 2.48469,0.13499 1.375,-0.900935 2.5,-2.050432 2.5,-2.554438 z m 35.00741,-0.334104 c -1.02727,-2.701926 -1.11627,-2.730961 -3.03859,-0.991285 -1.96202,1.775605 -1.95485,1.807769 0.77543,3.479818 3.20137,1.960547 3.73261,1.376401 2.26316,-2.488533 z M 91.238058,2.361009 c -0.9098,-2.370891 0.3775,-4.765333 2.35699,-4.384119 2.37799,0.45796 2.37799,5.162464 0,5.620424 -0.96417,0.18568 -2.02481,-0.370657 -2.35699,-1.236305 z M 300.84807,-0.034195 c 1.925,-0.176713 3.9275,-0.739213 4.45,-1.25 1.23622,-1.208509 13.86378,-1.208509 15.1,0 0.5225,0.510787 2.525,1.073287 4.45,1.25 1.925,0.176714 -3.475,0.321297 -12,0.321297 -8.525,0 -13.925,-0.144583 -12,-0.321297 z m -27,-2.73772 c 0,-0.857459 0.45,-1.280902 1,-0.940983 0.55,0.339919 1,1.041476 1,1.559017 0,0.517541 -0.45,0.940983 -1,0.940983 -0.55,0 -1,-0.701558 -1,-1.559017 z m 76.07895,-0.02432 c 0.048,-1.164943 0.28494,-1.4019 0.60416,-0.604167 0.28887,0.721875 0.25335,1.584375 -0.0789,1.916667 -0.33229,0.332291 -0.56864,-0.258334 -0.52522,-1.3125 z m -85.07895,-1.416663 c -4.35026,-0.676333 -4.28371,-0.704101 2,-0.834494 4.521,-0.09381 6.04331,0.160257 5,0.834494 -0.825,0.533156 -1.725,0.908678 -2,0.834494 -0.275,-0.074185 -2.525,-0.449707 -5,-0.834494 z m 12.84325,-0.118036 c -0.82091,-0.520284 1.15196,-0.857293 5.07342,-0.866651 3.52916,-0.0084 6.22916,0.149812 6,0.351632 -0.99496,0.876224 -9.85344,1.288228 -11.07342,0.515019 z m 62.65675,0.118036 c -3.60633,-0.645704 -3.36029,-0.728648 2.5,-0.842782 4.52356,-0.0881 6.0439,0.168163 5,0.842782 -1.62795,1.052064 -1.6241,1.052064 -7.5,0 z m 12.44535,-0.05494 c -0.95536,-0.60443 0.8995,-0.919628 5.47132,-0.929749 3.80416,-0.0084 6.72916,0.146637 6.5,0.344575 -1.07174,0.925692 -10.68998,1.395844 -11.97132,0.585174 z"
           id="path3411" /></g></g></g></svg>
