<?xml version="1.0" encoding="UTF-8" standalone="no"?>
<svg
   xml:space="preserve"
   viewBox="0 0 365.9 269.3"
   version="1.1"
   id="svg3474"
   sodipodi:docname="mtc.svg"
   style="enable-background:new 0 0 365.9 269.3"
   inkscape:version="1.2.2 (b0a84865, 2022-12-01)"
   xmlns:inkscape="http://www.inkscape.org/namespaces/inkscape"
   xmlns:sodipodi="http://sodipodi.sourceforge.net/DTD/sodipodi-0.dtd"
   xmlns="http://www.w3.org/2000/svg"
   xmlns:svg="http://www.w3.org/2000/svg"><defs
     id="defs3478" /><sodipodi:namedview
     id="namedview3476"
     pagecolor="#505050"
     bordercolor="#eeeeee"
     borderopacity="1"
     inkscape:showpageshadow="0"
     inkscape:pageopacity="0"
     inkscape:pagecheckerboard="0"
     inkscape:deskcolor="#505050"
     showgrid="false"
     inkscape:zoom="0.87634612"
     inkscape:cx="183.14681"
     inkscape:cy="134.64999"
     inkscape:window-width="1920"
     inkscape:window-height="1080"
     inkscape:window-x="0"
     inkscape:window-y="0"
     inkscape:window-maximized="0"
     inkscape:current-layer="svg3474" /><path
     d="M90.3 154.2c-1.5 0-2.8 1-3.2 2.4l-14.9 51.1-2 6.7h-.8l-1.2-3.5L50 156.5c-.5-1.4-1.7-2.3-3.2-2.3H3.3c-1.8 0-3.3 1.5-3.3 3.3v105.1c0 1.8 1.5 3.3 3.3 3.3l28.3.1c1.9 0 3.4-1.5 3.4-3.4l-.7-24.4-1-35.4h.8l9.2 28.2L54 263.8c.5 1.4 1.7 2.3 3.2 2.3h21.7c1.4 0 2.7-.9 3.2-2.3l20.1-60.8.9.2-1.1 59.5c0 1.9 1.5 3.4 3.3 3.4h29.9c1.8 0 3.3-1.5 3.3-3.3V157.5c0-1.8-1.5-3.3-3.3-3.3H90.3zM190 266.1c-1.8 0-3.3-1.5-3.3-3.3v-73.5c0-1.8-1.5-3.3-3.3-3.3h-29c-1.8 0-3.3-1.5-3.3-3.3v-25.1c0-1.8 1.5-3.3 3.3-3.3h102.2c1.8 0 3.3 1.5 3.3 3.3v25.1c0 1.8-1.5 3.3-3.3 3.3h-29c-1.8 0-3.3 1.5-3.3 3.3v73.5c0 1.8-1.5 3.3-3.3 3.3h-31zM336.7 231.4c-5.3 3.2-13.8 3.6-19.8 1-12.5-4.9-16.7-20.3-12.2-32.2 2.2-5.8 6.4-10.2 12-12.5 8.2-3.2 18.5-1.8 25 4.1 1.4 1.3 3.6 1.1 4.8-.4l18.5-22.3c1.2-1.4 1-3.6-.5-4.7-23.4-18.4-62.6-18-84.4 2.8-17.7 16-22.5 45.4-13 67.1 6.3 14.4 17.6 25.1 32.3 30.8 21.1 8.1 48.5 4.8 65.3-10.1 1.3-1.2 1.5-3.2.3-4.6L346.5 228c-1.2-1.5-3.4-1.6-4.8-.3s-3.1 2.5-5 3.7zM144.7 42c3.5-4.5 7.4-8.8 11.5-12.8 6.1-6 12.8-11.2 19.8-15.8C159.4 4.9 140.6 0 120.7 0 55.3 0 1.9 52.3 0 117.2c-.1 1.9 1.5 3.6 3.5 3.6H35c1.9 0 3.4-1.5 3.5-3.4 1.8-43.8 38-78.9 82.2-78.9 8.3 0 16.4 1.2 24 3.5zM193 66.5c-2 1.9-3.9 4-5.6 6.1 9.2 12.7 14.9 28.1 15.5 44.8.1 1.9 1.6 3.4 3.5 3.4h31.5c1.9 0 3.6-1.6 3.5-3.6-.7-24.9-9.1-48-22.7-66.9-9.5 3.6-18.2 9-25.7 16.2z"
     class="st0"
     id="path3470" /><path
     d="M362.4 120.8H331c-1.9 0-3.4-1.5-3.5-3.4-1.8-43.8-38-78.9-82.2-78.9s-80.4 35.1-82.2 78.9c-.1 1.9-1.6 3.4-3.5 3.4H128c-1.9 0-3.6-1.6-3.5-3.6C126.4 52.3 179.8 0 245.2 0S364 52.3 365.9 117.2c.1 2-1.5 3.6-3.5 3.6z"
     class="st0"
     id="path3472" /></svg>
