<?xml version="1.0" encoding="UTF-8" standalone="no"?>
<svg
   xml:space="preserve"
   viewBox="0 0 473.9 134.00001"
   version="1.1"
   id="svg3474"
   sodipodi:docname="mtc.svg"
   inkscape:version="1.2.2 (b0a84865, 2022-12-01)"
   width="473.89999"
   height="134"
   xmlns:inkscape="http://www.inkscape.org/namespaces/inkscape"
   xmlns:sodipodi="http://sodipodi.sourceforge.net/DTD/sodipodi-0.dtd"
   xmlns="http://www.w3.org/2000/svg"
   xmlns:svg="http://www.w3.org/2000/svg"><defs
     id="defs3478" /><sodipodi:namedview
     id="namedview3476"
     pagecolor="#505050"
     bordercolor="#eeeeee"
     borderopacity="1"
     inkscape:showpageshadow="0"
     inkscape:pageopacity="0"
     inkscape:pagecheckerboard="0"
     inkscape:deskcolor="#505050"
     showgrid="false"
     inkscape:zoom="0.87634612"
     inkscape:cx="182.00571"
     inkscape:cy="134.64999"
     inkscape:window-width="1920"
     inkscape:window-height="1080"
     inkscape:window-x="0"
     inkscape:window-y="0"
     inkscape:window-maximized="0"
     inkscape:current-layer="svg3474" /><path
     d="m 44.911879,76.697191 c -0.746081,0 -1.392685,0.497387 -1.591641,1.19373 l -7.411077,25.416519 -0.994775,3.33249 H 34.516475 L 33.91961,104.89908 24.867153,77.841182 C 24.618459,77.14484 24.021594,76.697191 23.275512,76.697191 H 1.6391452 c -0.8952979,0 -1.64137952,0.746081 -1.64137952,1.641379 v 52.27545 c 0,0.8953 0.74608162,1.64138 1.64137952,1.64138 l 14.0760728,0.0497 c 0.945037,0 1.691119,-0.74608 1.691119,-1.69112 L 17.058165,118.47772 16.560778,100.8702 h 0.39791 l 4.575967,14.02633 5.322049,16.31432 c 0.248694,0.69634 0.845559,1.14399 1.591641,1.14399 h 10.793314 c 0.696343,0 1.342947,-0.44765 1.591641,-1.14399 l 9.997493,-30.24118 0.447649,0.0995 -0.547126,29.59457 c 0,0.94504 0.746081,1.69112 1.641379,1.69112 h 14.871894 c 0.895298,0 1.64138,-0.74608 1.64138,-1.64138 V 78.33857 c 0,-0.895298 -0.746082,-1.641379 -1.64138,-1.641379 z m 49.589559,55.657689 c -0.895298,0 -1.64138,-0.74608 -1.64138,-1.64138 v -36.558 c 0,-0.895297 -0.746082,-1.641379 -1.64138,-1.641379 H 76.794434 c -0.895298,0 -1.64138,-0.746082 -1.64138,-1.64138 V 78.388309 c 0,-0.895298 0.746082,-1.64138 1.64138,-1.64138 h 50.833026 c 0.8953,0 1.64138,0.746082 1.64138,1.64138 v 12.484432 c 0,0.895298 -0.74608,1.64138 -1.64138,1.64138 h -14.42424 c -0.8953,0 -1.64138,0.746082 -1.64138,1.641379 v 36.558 c 0,0.8953 -0.74608,1.64138 -1.64138,1.64138 z m 72.966782,-17.25936 c -2.63616,1.59165 -6.86395,1.7906 -9.84828,0.49739 -6.21734,-2.4372 -8.30637,-10.09697 -6.06813,-16.015883 1.09426,-2.884849 3.18328,-5.073355 5.96866,-6.217347 4.07857,-1.591641 9.20167,-0.895298 12.43469,2.03929 0.69634,0.646604 1.79059,0.547126 2.38746,-0.198955 l 9.20167,-11.091747 c 0.59687,-0.696343 0.49739,-1.790596 -0.24869,-2.337722 -11.63887,-9.151935 -31.13647,-8.95298 -41.97953,1.392685 -8.80376,7.958204 -11.19122,22.581399 -6.46604,33.374719 3.13355,7.16238 8.75403,12.48443 16.06563,15.31954 10.49488,4.02884 24.1233,2.38746 32.47942,-5.02361 0.6466,-0.59687 0.74608,-1.59165 0.14921,-2.28799 l -9.20167,-11.14148 c -0.59687,-0.74609 -1.69112,-0.79582 -2.38746,-0.14922 -0.69634,0.6466 -1.5419,1.24347 -2.48694,1.84033 z M 71.969773,20.890285 c 1.740857,-2.238244 3.680669,-4.377012 5.719959,-6.366563 3.034065,-2.984326 6.366563,-5.5707426 9.848277,-7.8587262 C 79.281373,2.4372 69.930483,0 60.032467,0 27.503308,0 0.9428024,26.013379 -0.00223432,58.293844 -0.05197309,59.238881 0.7438473,60.08444 1.7386228,60.08444 H 17.406337 c 0.945037,0 1.691118,-0.746082 1.740857,-1.691119 0.895298,-21.785583 18.900734,-39.243893 40.885273,-39.243893 4.128318,0 8.157159,0.596866 11.937306,1.740857 z m 24.023828,12.186 c -0.994776,0.945037 -1.939812,1.989551 -2.785372,3.034065 4.575968,6.316825 7.411081,13.976596 7.709511,22.282971 0.0497,0.945037 0.79582,1.691119 1.74086,1.691119 h 15.66771 c 0.94504,0 1.7906,-0.795821 1.74086,-1.790596 -0.34817,-12.384955 -4.52623,-23.874612 -11.2907,-33.27524 -4.72519,1.790596 -9.052461,4.476489 -12.782869,8.057681 z"
     class="st0"
     id="path3470"
     style="stroke-width:0.497388" /><path
     d="m 180.25109,60.08444 h -15.61798 c -0.94504,0 -1.69112,-0.746082 -1.74086,-1.691119 -0.8953,-21.785583 -18.90073,-39.243893 -40.88527,-39.243893 -21.98454,0 -39.989975,17.45831 -40.885273,39.243893 -0.04974,0.945037 -0.79582,1.691119 -1.740857,1.691119 H 63.663397 c -0.945036,0 -1.790596,-0.795821 -1.740857,-1.790596 C 62.867577,26.013379 89.428083,0 121.95724,0 c 32.52916,0 59.08967,26.013379 60.0347,58.293844 0.0497,0.994775 -0.74608,1.790596 -1.74085,1.790596 z"
     class="st0"
     id="path3472"
     style="stroke-width:0.497388" /><text
     xml:space="preserve"
     style="font-style:normal;font-variant:normal;font-weight:bold;font-stretch:normal;font-size:53.3333px;font-family:'Avenir Next';-inkscape-font-specification:'Avenir Next Bold';fill:#ffffff;stroke-width:2"
     x="206.53941"
     y="131.22668"
     id="text3676"><tspan
       sodipodi:role="line"
       id="tspan3674"
       x="206.53941"
       y="131.22668"
       style="font-style:normal;font-variant:normal;font-weight:bold;font-stretch:normal;font-size:53.3333px;font-family:'Avenir Next';-inkscape-font-specification:'Avenir Next Bold';fill:#000000">CONNECT</tspan></text></svg>
